<svg xmlns="http://www.w3.org/2000/svg" viewBox="0 0 800 500" width="800" height="500" role="img"><defs><linearGradient id="g2" x1="0" y1="0" x2="0" y2="1"><stop offset="0%" stop-color="#12564F"/><stop offset="100%" stop-color="#0B3D3A"/></linearGradient></defs><rect width="800" height="500" fill="url(#g2)"/><circle cx="587" cy="120" r="70" fill="#F0C878" opacity="0.85"/><path d="M0,300 L0,305 L100,317 L200,316 L300,303 L400,288 L500,282 L600,290 L700,305 L800,317 L800,500 L0,500 Z" fill="#4E9A63" opacity="0.55"/><path d="M0,360 L0,383 L100,384 L200,367 L300,344 L400,334 L500,343 L600,365 L700,383 L800,384 L800,500 L0,500 Z" fill="#2F7A4F" opacity="0.7"/><path d="M0,430 L0,445 L100,460 L200,452 L300,428 L400,405 L500,401 L600,419 L700,445 L800,460 L800,500 L0,500 Z" fill="#0B3D3A" opacity="0.95"/><ellipse cx="79" cy="380" rx="26" ry="60" fill="#4E9A63" opacity="0.85" transform="rotate(-7 79 380)"/><ellipse cx="258" cy="380" rx="26" ry="60" fill="#4E9A63" opacity="0.85" transform="rotate(-9 258 380)"/><ellipse cx="418" cy="380" rx="26" ry="60" fill="#4E9A63" opacity="0.85" transform="rotate(-14 418 380)"/><ellipse cx="577" cy="380" rx="26" ry="60" fill="#4E9A63" opacity="0.85" transform="rotate(6 577 380)"/><ellipse cx="710" cy="380" rx="26" ry="60" fill="#4E9A63" opacity="0.85" transform="rotate(-2 710 380)"/></svg>