<svg xmlns="http://www.w3.org/2000/svg" viewBox="0 0 800 500" width="800" height="500" role="img"><defs><linearGradient id="g3" x1="0" y1="0" x2="0" y2="1"><stop offset="0%" stop-color="#2F7A4F"/><stop offset="100%" stop-color="#0B3D3A"/></linearGradient></defs><rect width="800" height="500" fill="url(#g3)"/><circle cx="610" cy="120" r="70" fill="#F0C878" opacity="0.85"/><path d="M0,300 L0,318 L100,308 L200,292 L300,282 L400,286 L500,300 L600,314 L700,318 L800,308 L800,500 L0,500 Z" fill="#D9A441" opacity="0.55"/><path d="M0,360 L0,370 L100,385 L200,381 L300,361 L400,340 L500,334 L600,348 L700,370 L800,385 L800,500 L0,500 Z" fill="#2F7A4F" opacity="0.7"/><path d="M0,430 L0,442 L100,415 L200,400 L300,408 L400,432 L500,455 L600,459 L700,441 L800,415 L800,500 L0,500 Z" fill="#0B3D3A" opacity="0.95"/></svg>