<svg xmlns="http://www.w3.org/2000/svg" viewBox="0 0 800 500" width="800" height="500" role="img"><defs><linearGradient id="g5" x1="0" y1="0" x2="0" y2="1"><stop offset="0%" stop-color="#0B3D3A"/><stop offset="100%" stop-color="#12564F"/></linearGradient></defs><rect width="800" height="500" fill="url(#g5)"/><circle cx="659" cy="120" r="70" fill="#F0C878" opacity="0.85"/><path d="M0,300 L0,312 L100,318 L200,310 L300,294 L400,283 L500,285 L600,298 L700,313 L800,318 L800,500 L0,500 Z" fill="#2F7A4F" opacity="0.55"/><path d="M0,360 L0,383 L100,384 L200,367 L300,345 L400,334 L500,343 L600,365 L700,383 L800,384 L800,500 L0,500 Z" fill="#2F7A4F" opacity="0.7"/><path d="M0,430 L0,456 L100,435 L200,410 L300,400 L400,413 L500,439 L600,458 L700,456 L800,435 L800,500 L0,500 Z" fill="#0B3D3A" opacity="0.95"/></svg>