<svg xmlns="http://www.w3.org/2000/svg" viewBox="0 0 800 500" width="800" height="500" role="img"><defs><linearGradient id="g8" x1="0" y1="0" x2="0" y2="1"><stop offset="0%" stop-color="#2F7A4F"/><stop offset="100%" stop-color="#0B3D3A"/></linearGradient></defs><rect width="800" height="500" fill="url(#g8)"/><circle cx="609" cy="120" r="70" fill="#F0C878" opacity="0.85"/><path d="M0,300 L0,316 L100,316 L200,304 L300,289 L400,282 L500,289 L600,304 L700,316 L800,316 L800,500 L0,500 Z" fill="#D9A441" opacity="0.55"/><path d="M0,360 L0,383 L100,383 L200,366 L300,344 L400,334 L500,344 L600,366 L700,384 L800,383 L800,500 L0,500 Z" fill="#2F7A4F" opacity="0.7"/><path d="M0,430 L0,446 L100,460 L200,451 L300,426 L400,404 L500,402 L600,421 L700,447 L800,460 L800,500 L0,500 Z" fill="#0B3D3A" opacity="0.95"/><ellipse cx="62" cy="380" rx="26" ry="60" fill="#4E9A63" opacity="0.85" transform="rotate(-13 62 380)"/><ellipse cx="228" cy="380" rx="26" ry="60" fill="#4E9A63" opacity="0.85" transform="rotate(-8 228 380)"/><ellipse cx="412" cy="380" rx="26" ry="60" fill="#4E9A63" opacity="0.85" transform="rotate(-9 412 380)"/><ellipse cx="565" cy="380" rx="26" ry="60" fill="#4E9A63" opacity="0.85" transform="rotate(5 565 380)"/><ellipse cx="701" cy="380" rx="26" ry="60" fill="#4E9A63" opacity="0.85" transform="rotate(-1 701 380)"/></svg>