<svg xmlns="http://www.w3.org/2000/svg" viewBox="0 0 800 500" width="800" height="500" role="img"><defs><linearGradient id="g4" x1="0" y1="0" x2="0" y2="1"><stop offset="0%" stop-color="#0B3D3A"/><stop offset="100%" stop-color="#2F7A4F"/></linearGradient></defs><rect width="800" height="500" fill="url(#g4)"/><circle cx="610" cy="120" r="70" fill="#F0C878" opacity="0.85"/><path d="M0,300 L0,314 L100,317 L200,308 L300,292 L400,282 L500,286 L600,300 L700,314 L800,317 L800,500 L0,500 Z" fill="#F0C878" opacity="0.55"/><path d="M0,360 L0,382 L100,362 L200,341 L300,334 L400,347 L500,370 L600,385 L700,381 L800,362 L800,500 L0,500 Z" fill="#2F7A4F" opacity="0.7"/><path d="M0,430 L0,460 L100,452 L200,427 L300,405 L400,402 L500,420 L600,446 L700,460 L800,451 L800,500 L0,500 Z" fill="#0B3D3A" opacity="0.95"/><ellipse cx="65" cy="380" rx="26" ry="60" fill="#4E9A63" opacity="0.85" transform="rotate(-13 65 380)"/><ellipse cx="221" cy="380" rx="26" ry="60" fill="#4E9A63" opacity="0.85" transform="rotate(-3 221 380)"/><ellipse cx="415" cy="380" rx="26" ry="60" fill="#4E9A63" opacity="0.85" transform="rotate(14 415 380)"/><ellipse cx="558" cy="380" rx="26" ry="60" fill="#4E9A63" opacity="0.85" transform="rotate(10 558 380)"/><ellipse cx="703" cy="380" rx="26" ry="60" fill="#4E9A63" opacity="0.85" transform="rotate(-8 703 380)"/></svg>