<svg xmlns="http://www.w3.org/2000/svg" viewBox="0 0 800 500" width="800" height="500" role="img"><defs><linearGradient id="g11" x1="0" y1="0" x2="0" y2="1"><stop offset="0%" stop-color="#12564F"/><stop offset="100%" stop-color="#2F7A4F"/></linearGradient></defs><rect width="800" height="500" fill="url(#g11)"/><circle cx="637" cy="120" r="70" fill="#F0C878" opacity="0.85"/><path d="M0,300 L0,309 L100,294 L200,283 L300,285 L400,298 L500,313 L600,318 L700,309 L800,293 L800,500 L0,500 Z" fill="#F0C878" opacity="0.55"/><path d="M0,360 L0,374 L100,352 L200,336 L300,338 L400,357 L500,378 L600,386 L700,374 L800,351 L800,500 L0,500 Z" fill="#2F7A4F" opacity="0.7"/><path d="M0,430 L0,451 L100,427 L200,405 L300,402 L400,420 L500,446 L600,460 L700,451 L800,426 L800,500 L0,500 Z" fill="#0B3D3A" opacity="0.95"/></svg>