<svg xmlns="http://www.w3.org/2000/svg" viewBox="0 0 800 500" width="800" height="500" role="img"><defs><linearGradient id="g1" x1="0" y1="0" x2="0" y2="1"><stop offset="0%" stop-color="#0B3D3A"/><stop offset="100%" stop-color="#12564F"/></linearGradient></defs><rect width="800" height="500" fill="url(#g1)"/><circle cx="597" cy="120" r="70" fill="#F0C878" opacity="0.85"/><path d="M0,300 L0,318 L100,309 L200,294 L300,283 L400,285 L500,299 L600,313 L700,318 L800,309 L800,500 L0,500 Z" fill="#2F7A4F" opacity="0.55"/><path d="M0,360 L0,377 L100,356 L200,337 L300,336 L400,353 L500,375 L600,386 L700,377 L800,355 L800,500 L0,500 Z" fill="#2F7A4F" opacity="0.7"/><path d="M0,430 L0,436 L100,457 L200,457 L300,437 L400,412 L500,400 L600,411 L700,436 L800,457 L800,500 L0,500 Z" fill="#0B3D3A" opacity="0.95"/></svg>